# xmcd
#
# Track frame offsets: 
#        150
#        24795
#        43604
#        56823
#        76961
#        90304
#        107650
#        121140
#        140756
#        165630
#        190789
#        214226
#
# Disc length: 3162 seconds
#
# Revision: 0
# Processed by: cddbd v1.5.2PL0 Copyright (c) Steve Scherf et al.
# Submitted via: ExactAudioCopy v1.3
#
DISCID=980c580c
DTITLE=Erwin Helfer - Erwin Helfer Way
DYEAR=2013
DGENRE=Blues
TTITLE0=Chicken Shack
TTITLE1=Take My Hand, Precious Lord
TTITLE2=The Fives
TTITLE3=Within
TTITLE4=Exactly Like You
TTITLE5=Baby Won't You Please Come Home
TTITLE6=E&C Boogie
TTITLE7=Big Joe
TTITLE8=Winin' Boy
TTITLE9=Sweet Georgia Brown
TTITLE10=Tin Roof Blues
TTITLE11=The Preacher
EXTD=
EXTT0=
EXTT1=
EXTT2=
EXTT3=
EXTT4=
EXTT5=
EXTT6=
EXTT7=
EXTT8=
EXTT9=
EXTT10=
EXTT11=
PLAYORDER=
